#!OML:ASF I:\Actors\actors\Patient Classification 2\Patient 1\Session 1\actor1.ASF
:FULLY-SPECIFIED
:DEGREES
326
root -1.23436 18.6587 6.34963 4.16436 10.3411 -5.93527
lowerback 2.12358 4.55302 -4.95368
upperback -1.30445 5.81711 -4.01216
thorax -2.60899 2.94933 -1.63491
lowerneck -9.48033 10.407 13.401
upperneck 27.477 15.1745 -9.35997
head 12.4351 7.23945 -3.53301
rclavicle 7.7526e-015 6.36111e-015
rhumerus 80.4746 56.7801 0.99912
rradius 121.315
rwrist -56.8414
rhand 3.21243 -34.2245
rfingers 7.12502
rthumb 28.6635 -62.0456
lclavicle 7.7526e-015 6.36111e-015
lhumerus -53.8276 2.42906 38.3407
lradius 50.8673
lwrist -30.8716
lhand 14.5669 3.73088
lfingers 7.12502
lthumb 39.4438 29.1223
rfemur 0 0 0
rtibia 0
rfoot 0 0
rtoes 0
lfemur -9.27506 -16.0093 -4.72429
ltibia 23.3824
lfoot -24.8643 17.4372
ltoes -56.4942
327
root -1.22657 18.6575 6.37227 4.20444 10.1477 -5.81583
lowerback 2.10231 4.43341 -4.8544
upperback -1.71854 5.63716 -4.12354
thorax -3.00334 2.8649 -1.81709
lowerneck -10.0422 10.2767 12.9298
upperneck 27.9496 14.8255 -8.57047
head 12.5742 7.10092 -3.19656
rclavicle 1.5704e-014 1.11319e-014
rhumerus 79.2786 58.1884 0.133712
rradius 121.655
rwrist -56.3669
rhand 2.68779 -33.6569
rfingers 7.12502
rthumb 28.1622 -61.5616
lclavicle 1.5704e-014 1.11319e-014
lhumerus -52.8438 5.72487 35.5341
lradius 50.189
lwrist -30.7306
lhand 12.4189 3.00422
lfingers 7.12502
lthumb 37.4168 28.9598
rfemur 0 0 0
rtibia 0
rfoot 0 0
rtoes 0
lfemur -9.08659 -16.0536 -4.93521
ltibia 23.3034
lfoot -25.0303 17.6481
ltoes -56.5006
328
root -1.21938 18.6557 6.39565 4.21107 9.93084 -5.73501
lowerback 2.09466 4.31142 -4.79366
upperback -2.12347 5.45322 -4.17659
thorax -3.40725 2.77866 -1.91881
lowerneck -10.3567 10.1252 12.7874
upperneck 28.2781 14.5286 -8.23036
head 12.6888 6.98134 -3.08394
rclavicle -2.98177e-015 -1.27222e-014
rhumerus 78.1049 59.5118 -0.6695
rradius 121.918
rwrist -55.9812
rhand 2.26082 -33.2002
rfingers 7.12502
rthumb 27.754 -61.1715
lclavicle -2.98177e-015 -1.27222e-014
lhumerus -52.1655 8.6531 33.0138
lradius 49.6628
lwrist -30.8273
lhand 10.1759 2.15875
lfingers 7.12502
lthumb 35.2931 28.6458
rfemur 0 0 0
rtibia 0
rfoot 0 0
rtoes 0
lfemur -8.8577 -16.1783 -5.1196
ltibia 23.2326
lfoot -25.2289 17.9396
ltoes -56.4422
329
root -1.21411 18.6535 6.4186 4.20578 9.68462 -5.67725
lowerback 2.0483 4.17261 -4.7747
upperback -2.49836 5.25135 -4.17631
thorax -3.76837 2.68397 -1.93629
lowerneck -10.5969 9.97864 12.6971
upperneck 28.579 14.2871 -8.06322
head 12.8066 6.8756 -3.03909
rclavicle -5.28767e-014 -1.59028e-015
rhumerus 76.9215 60.7324 -1.45214
rradius 122.207
rwrist -55.8799
rhand 1.65964 -32.4339
rfingers 7.12502
rthumb 27.179 -60.4964
lclavicle -5.28767e-014 -1.59028e-015
lhumerus -51.6396 11.0942 30.8149
lradius 49.1417
lwrist -31.1092
lhand 8.53172 1.40529
lfingers 7.12502
lthumb 33.7324 28.248
rfemur 0 0 0
rtibia 0
rfoot 0 0
rtoes 0
lfemur -8.61661 -16.3271 -5.27959
ltibia 23.1733
lfoot -25.4616 18.2535
ltoes -56.3603
330
root -1.20696 18.6506 6.44181 4.17152 9.36289 -5.64537
lowerback 1.98445 4.04192 -4.68689
upperback -2.81753 5.06775 -4.17535
thorax -4.05615 2.59528 -1.98634
lowerneck -11.0647 9.8614 12.3931
upperneck 29.0453 14.0724 -7.72363
head 13.0108 6.77015 -2.87917
rclavicle -2.33572e-014 1.74931e-014
rhumerus 75.6963 61.8266 -2.34313
rradius 122.491
rwrist -55.836
rhand 0.982413 -31.7296
rfingers 7.12502
rthumb 26.531 -59.8917
lclavicle -2.33572e-014 1.74931e-014
lhumerus -51.0857 13.0736 28.8979
lradius 48.5824
lwrist -31.3358
lhand 7.55416 0.851944
lfingers 7.12502
lthumb 32.803 27.8935
rfemur 0 0 0
rtibia 0
rfoot 0 0
rtoes 0
lfemur -8.30477 -16.5664 -5.44614
ltibia 23.1213
lfoot -25.8522 18.603
ltoes -56.1907
331
root -1.19821 18.6475 6.4641 4.13832 8.98189 -5.6447
lowerback 1.96714 3.91479 -4.52246
upperback -3.16576 4.88613 -4.20769
thorax -4.39214 2.50464 -2.11813
lowerneck -11.5253 9.74966 12.0764
upperneck 29.5156 13.833 -7.27154
head 13.2051 6.66662 -2.6777
rclavicle -5.36719e-015 3.18055e-014
rhumerus 74.449 62.9194 -3.40548
rradius 122.715
rwrist -55.4146
rhand 0.421145 -31.4488
rfingers 7.12502
rthumb 25.9937 -59.6909
lclavicle -5.36719e-015 3.18055e-014
lhumerus -50.6443 14.637 27.0826
lradius 48.1414
lwrist -31.1827
lhand 6.72489 0.457288
lfingers 7.12502
lthumb 32.0138 27.6605
rfemur 0 0 0
rtibia 0
rfoot 0 0
rtoes 0
lfemur -7.98366 -16.6384 -5.58188
ltibia 23.0658
lfoot -26.1882 18.8282
ltoes -56.0288
332
root -1.19299 18.6456 6.4828 4.15756 8.59425 -5.62484
lowerback 1.96836 3.75859 -4.44036
upperback -3.56984 4.65777 -4.24393
thorax -4.80621 2.39315 -2.21064
lowerneck -11.743 9.63568 11.8762
upperneck 29.8302 13.5778 -6.83845
head 13.2967 6.57681 -2.5151
rclavicle -6.0033e-014 1.90833e-014
rhumerus 73.1457 63.9707 -4.62062
rradius 122.943
rwrist -54.7235
rhand 0.0512387 -31.1629
rfingers 7.12502
rthumb 25.6394 -59.4566
lclavicle -6.0033e-014 1.90833e-014
lhumerus -50.468 15.9596 25.2612
lradius 47.9004
lwrist -30.6067
lhand 5.56715 0.0482305
lfingers 7.12502
lthumb 30.9108 27.4667
rfemur 0 0 0
rtibia 0
rfoot 0 0
rtoes 0
lfemur -7.75455 -16.3706 -5.68347
ltibia 23.0039
lfoot -26.298 18.8594
ltoes -55.9872
333
root -1.18577 18.6433 6.50309 4.15556 8.12483 -5.57528
lowerback 1.89238 3.61372 -4.414
upperback -3.8989 4.45281 -4.24956
thorax -5.10646 2.29424 -2.23131
lowerneck -11.8935 9.49539 11.796
upperneck 30.0501 13.3152 -6.60778
head 13.3638 6.4756 -2.45403
rclavicle 1.77788e-014 -3.18055e-015
rhumerus 71.9029 64.8145 -5.81162
rradius 123.177
rwrist -54.0696
rhand -0.333338 -30.7144
rfingers 7.12502
rthumb 25.2711 -59.0606
lclavicle 1.77788e-014 -3.18055e-015
lhumerus -50.4144 17.2165 23.5414
lradius 47.7272
lwrist -29.698
lhand 4.06307 -0.466011
lfingers 7.12502
lthumb 29.4759 27.2149
rfemur 0 0 0
rtibia 0
rfoot 0 0
rtoes 0
lfemur -7.44372 -16.2696 -5.86949
ltibia 22.9319
lfoot -26.5573 19.0649
ltoes -55.8679
